<?xml version="1.0" encoding="UTF-8"?><svg id="_レイヤー_2" xmlns="http://www.w3.org/2000/svg" viewBox="0 0 100 100"><defs><style>.cls-1,.cls-2{fill:#fff;}.cls-3{fill:#f70b48;}.cls-4{stroke:#fff;stroke-width:3px;}.cls-4,.cls-5,.cls-6{fill:none;}.cls-4,.cls-5,.cls-6,.cls-2{stroke-miterlimit:10;}.cls-5{stroke-linecap:round;}.cls-5,.cls-6{stroke:#f70b48;}.cls-2{stroke:#231815;}.cls-7{fill:#231815;}</style></defs><g><circle class="cls-3" cx="30.88" cy="42.49" r="27.53"/><g><rect class="cls-1" x="13.3" y="31.41" width="27.41" height="22.17" rx="5.01" ry="5.01"/><g><path class="cls-1" d="M49.92,42.71h-6.86v-1.44c0-.54,.27-1.01,.65-1.15l5.15-2.96c.54-.19,1.06,.38,1.06,1.15v4.4Z"/><path class="cls-1" d="M49.92,42.28h-6.86v1.44c0,.54,.27,1.01,.65,1.15l5.15,2.96c.54,.19,1.06-.38,1.06-1.15v-4.4Z"/></g></g></g><path class="cls-2" d="M56.86,62.23l-6.78-3.21-6.85-3.24c-.18-.09-.41,.1-.37,.3l1.82,7.36,1.8,7.29c.05,.21,.35,.2,.45,0l1.95-3.92,4.12,5.04,3.66-2.99-4.12-5.04,4.23-1.13c.22-.06,.29-.35,.1-.44Z"/><line class="cls-5" x1="23.51" y1="13.06" x2="18.89" y2="4.31"/><line class="cls-5" x1="58.41" y1="23.42" x2="67.92" y2="20.52"/><g><path d="M28.37,5.88c-.38,.88-.94,1.69-1.68,2.41-.11,.11-.21,.17-.29,.18-.09,.01-.15-.01-.21-.07-.04-.05-.07-.1-.07-.14-.01-.07,.01-.14,.06-.22,.02-.02,.1-.11,.23-.25,.6-.66,1.06-1.5,1.39-2.52,.06-.19,.17-.3,.31-.32,.08-.01,.15,0,.22,.02,.12,.04,.2,.13,.23,.26l1.83-.35c.46-.09,.71,.04,.76,.39,.03,.18,0,.53-.09,1.04-.19,1.12-.59,2.15-1.19,3.09-.66,1.03-1.49,1.89-2.51,2.58-.09,.06-.18,.1-.25,.11-.09,.01-.16-.01-.21-.07-.04-.05-.07-.09-.07-.14-.01-.08,.03-.16,.12-.25,.02-.02,.11-.09,.27-.23,1.25-1.03,2.16-2.26,2.72-3.69,.25-.65,.41-1.28,.48-1.88,.01-.13,.02-.21,.01-.24,0-.07-.06-.09-.15-.08l-1.92,.38Z"/><path d="M37.96,5.09l-.45,2.95c-.04,.25-.17,.36-.4,.33-.23-.03-.33-.18-.29-.43l.45-2.95c.04-.26,.18-.37,.41-.33s.33,.18,.29,.43Zm3.24,.05l-.41,2.71c-.25,1.63-.84,2.81-1.77,3.54-.47,.37-.8,.54-1,.52-.07-.01-.12-.04-.16-.09-.04-.06-.05-.11-.04-.17,.02-.09,.08-.18,.18-.26,.58-.42,1.01-.86,1.3-1.32,.38-.6,.65-1.37,.79-2.31l.41-2.72c.03-.22,.16-.31,.4-.28,.23,.03,.33,.16,.3,.38Z"/><path d="M51.02,10.86s.08,.05,.11,.08c.11,.12,.13,.26,.04,.43-.09,.19-.33,.49-.72,.9-.82,.87-1.79,1.44-2.92,1.69-.43,.1-.84,.14-1.24,.13-.08,0-.16-.02-.21-.05-.14-.07-.17-.17-.1-.3,.04-.09,.14-.14,.3-.16,.54-.06,1-.16,1.38-.3,.78-.29,1.49-.75,2.12-1.38,.23-.23,.5-.54,.8-.93,.12-.16,.27-.2,.44-.11Zm-4.48-1.82c.08,.04,.14,.13,.19,.27,.16,.44,.23,.83,.23,1.16,0,.13-.03,.23-.07,.31-.05,.1-.12,.16-.22,.18-.09,.02-.17,0-.25-.03-.13-.06-.18-.2-.15-.4,.04-.36,.04-.76-.02-1.21,0-.07,0-.14,.03-.19,.06-.12,.15-.14,.27-.08Zm1.95,.3c.11,.06,.19,.28,.23,.67,.05,.47,.02,.82-.09,1.05-.07,.15-.18,.23-.31,.24-.08,0-.15,0-.21-.03-.14-.07-.18-.21-.13-.42,.11-.4,.17-.82,.18-1.25,0-.06,.01-.1,.03-.14,.07-.13,.16-.17,.29-.1Z"/><path d="M58.08,15.04c-.93,.24-1.91,.28-2.93,.14-.15-.02-.26-.06-.32-.12-.06-.06-.08-.13-.07-.21,.01-.06,.04-.11,.07-.14,.05-.05,.12-.08,.21-.08,.03,0,.14,0,.34,.03,.89,.07,1.84-.08,2.85-.44,.19-.07,.33-.05,.44,.05,.06,.05,.1,.11,.12,.18,.04,.13,.02,.24-.07,.34l1.39,1.24c.35,.31,.4,.59,.16,.85-.13,.13-.42,.32-.88,.57-1,.53-2.06,.85-3.17,.94-1.22,.11-2.41-.03-3.57-.41-.11-.03-.19-.08-.24-.13-.07-.06-.09-.13-.07-.21,.01-.06,.03-.11,.06-.14,.05-.05,.14-.08,.27-.06,.03,0,.14,.03,.35,.08,1.58,.36,3.11,.33,4.58-.11,.67-.2,1.26-.45,1.78-.77,.11-.07,.18-.11,.2-.14,.05-.05,.04-.1-.03-.16l-1.47-1.29Z"/></g><g><g><circle class="cls-3" cx="77.1" cy="79.95" r="14.94"/><g><rect class="cls-1" x="67.56" y="73.94" width="14.88" height="12.03" rx="2.85" ry="2.85"/><path class="cls-1" d="M86.85,77.06l-2.8,1.6c-.21,.07-.35,.33-.35,.62v1.33c0,.29,.15,.55,.35,.62l2.8,1.6c.29,.1,.58-.2,.58-.62v-4.54c0-.42-.28-.72-.58-.62Z"/></g></g><line class="cls-4" x1="67.89" y1="70.75" x2="86.3" y2="89.15"/><line class="cls-6" x1="66.34" y1="70.7" x2="86.23" y2="90.59"/><line class="cls-6" x1="67.96" y1="69.31" x2="87.85" y2="89.19"/></g><path class="cls-7" d="M63.64,38.76c3.39,.58,7,2.42,8.88,5.41,1.25,1.99,.78,3.94-1.27,5.06-.74,.4-1.57,.71-2.38,.91-.41,.11-.84,.2-1.27,.2-.3,.01-.59-.03-.88-.12-.77-.17-.84-.48-.21-.92,.13-.47,.39-.65,.79-.54,.3,.03,.61,.08,.91,.14,.31,.06,.62,.14,.92,.23,.74,.23,1.45,.55,2.12,.95,1.27,.77,2.34,1.85,3.21,3.05,1.79,2.47,2.79,5.42,3.49,8.36,.11,.47,.84,.27,.72-.2-.76-3.18-1.88-6.37-3.9-8.98-1.8-2.33-4.76-4.39-7.84-4.31-1.04,.03-2.27,.96-1.61,2.09,.73,1.24,2.57,1.07,3.74,.77,2.86-.74,6-2.74,4.6-6.12-1.54-3.73-6.06-6.07-9.82-6.72-.47-.08-.67,.64-.2,.72h0Z"/><path class="cls-7" d="M73.26,58.69c.31,.93,1.16,1.57,1.94,2.11,.43,.3,.89,.56,1.37,.78,.44,.21,.92,.44,1.41,.39,.99-.09,1.34-1.16,1.67-1.94,.45-1.08,.88-2.16,1.29-3.26,.17-.45-.56-.65-.72-.2-.33,.88-.67,1.76-1.03,2.64-.17,.42-.34,.85-.53,1.26-.14,.29-.32,.66-.66,.74-.37,.09-.83-.18-1.15-.33-.38-.19-.75-.4-1.11-.63-.65-.43-1.49-.99-1.75-1.76-.15-.46-.87-.26-.72,.2h0Z"/></svg>