<?xml version="1.0" encoding="UTF-8"?><svg id="_レイヤー_2" xmlns="http://www.w3.org/2000/svg" viewBox="0 0 100 100"><defs><style>.cls-1,.cls-2{fill:#fff;}.cls-3{fill:#f70b48;}.cls-4{fill:none;stroke:#f70b48;stroke-linecap:round;}.cls-4,.cls-2{stroke-miterlimit:10;}.cls-2{stroke:#231815;}</style></defs><g><circle class="cls-3" cx="45.16" cy="55.62" r="35"/><g><rect class="cls-1" x="22.81" y="41.53" width="34.85" height="28.18" rx="5.01" ry="5.01"/><g><path class="cls-1" d="M69.36,55.89h-8.73v-1.83c0-.69,.34-1.29,.83-1.46l6.55-3.76c.69-.24,1.35,.48,1.35,1.46v5.59Z"/><path class="cls-1" d="M69.36,55.34h-8.73v1.83c0,.69,.34,1.29,.83,1.46l6.55,3.76c.69,.24,1.35-.48,1.35-1.46v-5.59Z"/></g></g></g><path class="cls-2" d="M78.19,80.72l-8.62-4.09-8.71-4.12c-.23-.11-.53,.13-.47,.38l2.31,9.35,2.29,9.27c.06,.26,.44,.26,.57,0l2.48-4.98,5.24,6.41,4.65-3.8-5.24-6.41,5.38-1.43c.28-.08,.37-.45,.12-.56Z"/><line class="cls-4" x1="35.79" y1="18.2" x2="29.92" y2="7.08"/><line class="cls-4" x1="80.16" y1="31.38" x2="92.24" y2="27.69"/><g><path d="M41.97,9.08c-.49,1.12-1.2,2.14-2.13,3.06-.14,.13-.26,.21-.37,.23-.11,.02-.2-.01-.26-.09-.05-.06-.08-.12-.09-.18-.01-.09,.01-.18,.08-.28,.02-.03,.12-.13,.29-.32,.76-.84,1.35-1.91,1.77-3.21,.08-.24,.21-.38,.4-.41,.1-.02,.19,0,.28,.02,.16,.05,.25,.17,.29,.33l2.33-.44c.58-.11,.9,.06,.97,.5,.04,.23,0,.67-.11,1.33-.25,1.42-.75,2.73-1.51,3.93-.84,1.31-1.9,2.41-3.19,3.28-.12,.08-.22,.13-.32,.14-.11,.02-.2-.01-.27-.09-.05-.06-.08-.12-.09-.18-.01-.1,.03-.2,.15-.31,.02-.02,.14-.12,.35-.29,1.59-1.3,2.74-2.87,3.45-4.7,.32-.83,.53-1.62,.61-2.38,.02-.16,.02-.27,.02-.3-.01-.08-.08-.12-.19-.1l-2.43,.48Z"/><path d="M54.16,8.07l-.57,3.75c-.05,.32-.22,.46-.51,.42-.29-.04-.42-.23-.37-.55l.57-3.75c.05-.32,.22-.46,.52-.42s.42,.23,.37,.55Zm4.12,.06l-.52,3.44c-.32,2.07-1.06,3.57-2.25,4.5-.6,.47-1.02,.69-1.27,.66-.09-.01-.16-.05-.2-.11-.05-.07-.07-.14-.06-.22,.02-.12,.1-.22,.23-.33,.73-.53,1.28-1.09,1.65-1.67,.49-.77,.82-1.75,1-2.94l.53-3.45c.04-.28,.21-.4,.5-.36,.29,.04,.42,.21,.38,.49Z"/><path d="M70.77,15.41c.06,.03,.1,.06,.14,.1,.14,.15,.16,.33,.06,.55-.12,.24-.42,.63-.91,1.15-1.04,1.11-2.28,1.83-3.71,2.14-.54,.12-1.07,.18-1.58,.16-.11,0-.2-.02-.27-.06-.17-.08-.22-.21-.13-.38,.05-.11,.18-.18,.38-.2,.69-.07,1.27-.2,1.76-.38,.99-.37,1.89-.95,2.7-1.76,.3-.29,.64-.69,1.02-1.19,.16-.2,.34-.25,.56-.14Zm-5.69-2.31c.1,.05,.18,.16,.24,.34,.2,.56,.3,1.05,.29,1.47,0,.16-.03,.29-.08,.4-.06,.13-.16,.21-.28,.23-.11,.02-.21,0-.31-.04-.16-.08-.23-.25-.2-.51,.05-.45,.04-.96-.03-1.54-.01-.09,0-.17,.04-.24,.07-.15,.19-.18,.34-.11Zm2.48,.38c.14,.07,.24,.35,.3,.85,.06,.6,.03,1.04-.12,1.33-.09,.19-.22,.29-.39,.3-.1,0-.19,0-.27-.04-.18-.09-.23-.27-.16-.54,.14-.51,.21-1.04,.23-1.59,0-.07,.02-.13,.04-.18,.08-.17,.21-.21,.37-.13Z"/><path d="M79.74,20.72c-1.19,.3-2.43,.36-3.72,.18-.19-.03-.33-.08-.41-.16-.08-.07-.11-.16-.08-.27,.02-.08,.04-.14,.09-.18,.06-.07,.15-.1,.27-.11,.04,0,.18,.01,.44,.03,1.13,.09,2.34-.1,3.62-.56,.24-.09,.43-.06,.57,.07,.07,.07,.12,.14,.15,.23,.05,.16,.03,.3-.08,.43l1.77,1.57c.44,.39,.51,.75,.2,1.07-.16,.17-.54,.41-1.12,.72-1.28,.67-2.62,1.07-4.04,1.2-1.55,.14-3.06-.03-4.54-.52-.14-.04-.24-.1-.31-.16-.08-.08-.11-.17-.09-.27,.01-.08,.04-.14,.08-.18,.07-.07,.18-.1,.34-.08,.03,0,.18,.04,.44,.1,2.01,.46,3.95,.42,5.83-.14,.85-.25,1.61-.58,2.26-.97,.14-.09,.22-.14,.25-.17,.06-.06,.04-.13-.04-.21l-1.87-1.63Z"/></g></svg>